<?xml version="1.0" standalone="no"?>
<!DOCTYPE svg PUBLIC "-//W3C//DTD SVG 20010904//EN"
 "http://www.w3.org/TR/2001/REC-SVG-20010904/DTD/svg10.dtd">
<svg version="1.0" xmlns="http://www.w3.org/2000/svg"
 width="700.000000pt" height="700.000000pt" viewBox="0 0 700.000000 700.000000"
 preserveAspectRatio="xMidYMid meet">
<metadata>
Created by potrace 1.14, written by Peter Selinger 2001-2017
</metadata>
<g transform="translate(0.000000,700.000000) scale(0.100000,-0.100000)"
fill="#000000" stroke="none">
<path d="M5115 5669 c-492 -76 -793 -367 -870 -842 -22 -134 -19 -372 5 -539
61 -414 206 -724 455 -974 161 -162 316 -257 495 -304 63 -17 65 -19 73 -56 5
-22 8 -75 7 -119 -1 -96 -77 -1823 -85 -1947 l-7 -88 26 0 c21 0 26 6 30 33 3
17 23 455 46 972 46 1061 46 1075 66 1075 21 0 35 37 29 74 -7 33 -6 33 35 40
133 21 347 171 498 348 226 268 365 582 417 948 17 123 20 413 4 527 -59 439
-296 726 -684 829 -89 24 -122 27 -290 30 -104 1 -217 -2 -250 -7z m-95 -243
c0 -3 -78 -69 -172 -147 -95 -78 -197 -163 -227 -188 l-54 -46 33 53 c44 73
172 206 243 254 64 44 177 91 177 74z"/>
<path d="M2998 5040 c-156 -18 -328 -70 -435 -131 -125 -72 -259 -203 -329
-324 -10 -17 -15 -17 -110 13 -267 84 -558 94 -792 26 -352 -102 -579 -380
-660 -808 -22 -117 -24 -550 -4 -666 66 -369 202 -651 422 -871 126 -127 272
-222 395 -259 38 -11 41 -14 37 -45 -3 -25 1 -36 19 -49 30 -20 48 -20 71 1
23 20 23 62 -6 -557 -13 -267 -19 -489 -14 -495 5 -6 11 -6 17 0 4 6 18 251
30 545 13 294 24 544 26 555 3 16 17 24 62 33 134 28 337 145 482 279 91 83
199 212 270 321 l53 82 57 -52 c123 -113 304 -212 439 -239 60 -13 62 -14 62
-44 0 -16 -16 -392 -35 -835 -41 -941 -39 -860 -20 -860 8 0 15 8 15 18 0 9
16 377 35 817 19 440 35 815 35 834 l0 34 21 -27 c11 -14 26 -26 33 -26 24 0
67 41 64 62 -2 16 10 25 67 47 140 54 324 194 450 341 256 299 400 658 436
1085 33 396 -48 699 -242 910 -120 130 -314 230 -523 270 -99 19 -323 27 -428
15z m-135 -268 c-37 -42 -160 -182 -273 -310 l-205 -234 -3 46 c-6 89 70 233
191 362 87 92 188 165 269 194 94 34 96 27 21 -58z"/>
</g>
</svg>
