<svg xmlns="http://www.w3.org/2000/svg" xmlns:xlink="http://www.w3.org/1999/xlink" viewBox="0 0 60 60"><defs><style>.a{fill:#fff;}.b,.g,.h,.i{fill:none;}.b{stroke:#fffe11;}.b,.i{stroke-width:0.44px;}.c{fill:#fffe11;}.d{fill:#d8001e;}.e{fill:#001cc2;}.f{fill:#00c226;}.g{stroke:#001cc2;stroke-width:0.26px;}.h{stroke:#00c226;stroke-width:0.32px;}.i{stroke:#d8001e;}.j{opacity:0.88;isolation:isolate;filter:url(#a);}.k{fill:url(#b);}.l{fill:url(#d);}.m{fill:url(#f);}.n{fill:url(#h);}</style><filter id="a" x="-0.03" y="-0.02" width="1.05" height="1.04" name="filter4914"><feGaussianBlur result="feGaussianBlur4916" stdDeviation="0.02"/></filter><linearGradient id="b" x1="207.39" y1="92.13" x2="209.91" y2="92.33" gradientTransform="matrix(0.04, 2.35, 2.34, -0.01, -214.07, -466.37)" gradientUnits="userSpaceOnUse"><stop offset="0" stop-color="#fefefe"/><stop offset="1" stop-color="#001cc2"/></linearGradient><linearGradient id="d" x1="207.69" y1="82.21" x2="210.08" y2="82.18" gradientTransform="matrix(0.57, 2.35, 2.26, -0.1, -281.07, -463.39)" gradientUnits="userSpaceOnUse"><stop offset="0" stop-color="#fefefe"/><stop offset="1" stop-color="#00c226"/></linearGradient><linearGradient id="f" x1="233.8" y1="119.63" x2="235.17" y2="119.63" gradientTransform="matrix(-0.03, 1.9, 1.86, 0.01, -182.7, -437.36)" gradientUnits="userSpaceOnUse"><stop offset="0" stop-color="#fefefe"/><stop offset="1" stop-color="#fffe11"/></linearGradient><linearGradient id="h" x1="196.66" y1="68.23" x2="199.53" y2="67.53" gradientTransform="matrix(0.89, 2.59, 2.32, -0.17, -292.57, -485.27)" gradientUnits="userSpaceOnUse"><stop offset="0" stop-color="#fefefe"/><stop offset="1" stop-color="#d8001e"/></linearGradient></defs><circle class="a" cx="30" cy="30" r="30"/><path class="b" d="M33.7,25.13,32.37,54.44" transform="translate(0 0)"/><path class="c" d="M44.88,16c-1.24,8.87-8.24,12.32-10.78,12-2.86-.33-8.19-4.9-7.42-13.51.57-6.39,4.16-9.68,10.1-8.78C42.37,6.55,45.69,10.13,44.88,16Z" transform="translate(0 0)"/><path class="d" d="M54.43,19.61C55,28.81,48.88,34,46.35,34.36c-2.87.38-9-2.87-10-11.69-.74-6.54,2.1-10.74,8.08-11.32C50.08,10.8,54,13.55,54.43,19.61Z" transform="translate(0 0)"/><path class="d" d="M45.38,33.88l.32,0a.41.41,0,0,1,.39.38l.09.6c0,.22-.08.42-.26.43l-.32,0a.4.4,0,0,1-.38-.38l-.1-.6C45.09,34.09,45.21,33.89,45.38,33.88Z" transform="translate(0 0)"/><path class="c" d="M36,27.54l.24.21a.38.38,0,0,1,0,.51l-.35.44a.32.32,0,0,1-.47.09l-.25-.21a.37.37,0,0,1,0-.5l.34-.45A.33.33,0,0,1,36,27.54Z" transform="translate(0 0)"/><path class="e" d="M23.79,29.69C23.21,38.8,16.48,43,13.93,42.9c-2.89-.06-8.53-4.2-8.39-13C5.64,23.35,9,19.67,15,20c5.65.33,9.22,3.65,8.83,9.66Z" transform="translate(0 0)"/><path class="f" d="M36,25.42c.15,9.14-6.23,14-8.77,14.17-2.88.23-8.83-3.31-9.41-12.09C17.44,21,20.48,17,26.47,16.72c5.65-.25,9.47,2.69,9.57,8.7Z" transform="translate(0 0)"/><path class="e" d="M13.92,42.34l.24.2a.37.37,0,0,1,0,.51l-.34.45a.33.33,0,0,1-.48.09l-.24-.21a.38.38,0,0,1,0-.51l.35-.44A.32.32,0,0,1,13.92,42.34Z" transform="translate(0 0)"/><path class="g" d="M14.19,41.81l-.48,10.71" transform="translate(0 0)"/><path class="h" d="M26.69,38.33,26,54.4" transform="translate(0 0)"/><path class="f" d="M26.69,39.05l.26-.18a.34.34,0,0,1,.47.14l.3.48a.37.37,0,0,1-.07.5l-.26.19a.33.33,0,0,1-.46-.14l-.3-.48A.38.38,0,0,1,26.69,39.05Z" transform="translate(0 0)"/><path class="i" d="M46.05,23.85,44.72,53.17" transform="translate(0 0)"/><g class="j"><ellipse class="k" cx="10.45" cy="25.45" rx="3.92" ry="1.61" transform="translate(-16.34 19.18) rotate(-54.5)"/></g><g class="j"><ellipse class="l" cx="23.21" cy="21.38" rx="3.8" ry="1.62" transform="translate(-8.27 23.68) rotate(-46.84)"/></g><g class="j"><ellipse class="m" cx="32.11" cy="9.76" rx="3.12" ry="1.3" transform="translate(1.75 24.06) rotate(-42.12)"/></g><g class="j"><ellipse class="n" cx="41.35" cy="16.62" rx="3.93" ry="1.79" transform="translate(2.01 37.55) rotate(-49.9)"/></g></svg>